<svg xmlns="http://www.w3.org/2000/svg" xmlns:xlink="http://www.w3.org/1999/xlink" width="160" zoomAndPan="magnify" viewBox="0 0 120 30.000001" height="40" preserveAspectRatio="xMidYMid meet" version="1.0"><defs><g/><clipPath id="e1a34b259f"><path d="M 16.222656 6 L 35 6 L 35 23 L 16.222656 23 Z M 16.222656 6 " clip-rule="nonzero"/></clipPath></defs><g clip-path="url(#e1a34b259f)"><path fill="#e300ff" d="M 28.261719 21.289062 C 23.191406 24.308594 16.238281 20.3125 16.394531 14.347656 C 16.222656 8.242188 23.507812 4.257812 28.542969 7.582031 C 27.664062 8.367188 26.9375 9.328125 26.417969 10.398438 C 23.570312 8.824219 19.792969 11.074219 19.886719 14.363281 C 19.792969 17.761719 23.839844 19.996094 26.671875 18.1875 C 26.6875 18.1875 27.410156 17.761719 27.410156 17.761719 C 29.300781 16.707031 32.949219 14.613281 34.871094 13.527344 L 34.871094 17.511719 L 33 18.597656 C 33.015625 18.597656 33.015625 18.613281 33.03125 18.613281 C 31.863281 19.210938 29.410156 20.613281 28.261719 21.289062 Z M 28.261719 21.289062 " fill-opacity="1" fill-rule="nonzero"/></g><path fill="#00fff0" d="M 42.566406 14.363281 C 42.722656 20.234375 35.941406 24.246094 30.875 21.382812 L 35.515625 18.785156 C 37.34375 18.40625 38.773438 16.929688 39.074219 15.070312 L 39.027344 15.101562 C 39.027344 15.085938 39.027344 15.085938 39.027344 15.070312 L 36.207031 16.660156 L 36.207031 12.757812 L 41.261719 9.988281 C 41.875 10.902344 42.285156 11.957031 42.472656 13.089844 L 42.488281 13.089844 C 42.332031 12.082031 41.984375 11.136719 41.480469 10.304688 C 41.984375 11.152344 42.332031 12.097656 42.503906 13.105469 L 42.488281 13.121094 C 42.535156 13.511719 42.566406 13.9375 42.566406 14.363281 Z M 26.921875 16.410156 L 30.117188 14.613281 C 29.789062 10.964844 34.273438 8.492188 37.183594 10.664062 L 40.363281 8.871094 C 34.949219 2.953125 24.703125 8.601562 26.921875 16.410156 Z M 26.921875 16.410156 " fill-opacity="1" fill-rule="nonzero"/><g fill="#edfdff" fill-opacity="1"><g transform="translate(3.394275, 21.568778)"><g><path d="M 9.21875 -3.140625 C 9.75 -3.140625 10.265625 -3.21875 10.765625 -3.375 C 11.265625 -3.539062 11.628906 -3.695312 11.859375 -3.84375 L 12.21875 -4.078125 L 13.703125 -1.125 C 13.648438 -1.09375 13.578125 -1.046875 13.484375 -0.984375 C 13.398438 -0.921875 13.203125 -0.804688 12.890625 -0.640625 C 12.578125 -0.472656 12.238281 -0.328125 11.875 -0.203125 C 11.519531 -0.078125 11.050781 0.03125 10.46875 0.125 C 9.894531 0.226562 9.300781 0.28125 8.6875 0.28125 C 7.269531 0.28125 5.925781 -0.0664062 4.65625 -0.765625 C 3.382812 -1.460938 2.359375 -2.421875 1.578125 -3.640625 C 0.804688 -4.859375 0.421875 -6.175781 0.421875 -7.59375 C 0.421875 -8.664062 0.648438 -9.691406 1.109375 -10.671875 C 1.566406 -11.660156 2.171875 -12.503906 2.921875 -13.203125 C 3.679688 -13.910156 4.566406 -14.472656 5.578125 -14.890625 C 6.585938 -15.316406 7.625 -15.53125 8.6875 -15.53125 C 9.675781 -15.53125 10.582031 -15.410156 11.40625 -15.171875 C 12.238281 -14.941406 12.828125 -14.707031 13.171875 -14.46875 L 13.703125 -14.125 L 12.21875 -11.171875 C 12.132812 -11.242188 12.003906 -11.332031 11.828125 -11.4375 C 11.660156 -11.539062 11.316406 -11.675781 10.796875 -11.84375 C 10.273438 -12.019531 9.75 -12.109375 9.21875 -12.109375 C 8.382812 -12.109375 7.632812 -11.972656 6.96875 -11.703125 C 6.300781 -11.429688 5.773438 -11.070312 5.390625 -10.625 C 5.003906 -10.1875 4.707031 -9.707031 4.5 -9.1875 C 4.300781 -8.675781 4.203125 -8.160156 4.203125 -7.640625 C 4.203125 -6.472656 4.632812 -5.429688 5.5 -4.515625 C 6.363281 -3.597656 7.601562 -3.140625 9.21875 -3.140625 Z M 9.21875 -3.140625 "/></g></g></g><g fill="#edfdff" fill-opacity="1"><g transform="translate(17.364309, 21.568778)"><g/></g></g><g fill="#edfdff" fill-opacity="1"><g transform="translate(22.448428, 21.568778)"><g/></g></g><g fill="#edfdff" fill-opacity="1"><g transform="translate(27.532546, 21.568778)"><g/></g></g><g fill="#edfdff" fill-opacity="1"><g transform="translate(32.616664, 21.568778)"><g/></g></g><g fill="#edfdff" fill-opacity="1"><g transform="translate(37.700783, 21.568778)"><g/></g></g><g fill="#edfdff" fill-opacity="1"><g transform="translate(42.787104, 21.568778)"><g><path d="M 1.109375 -15.25 L 6.671875 -15.25 C 8.222656 -15.25 9.476562 -14.847656 10.4375 -14.046875 C 11.40625 -13.242188 11.890625 -12.078125 11.890625 -10.546875 C 11.890625 -9.023438 11.398438 -7.828125 10.421875 -6.953125 C 9.453125 -6.085938 8.203125 -5.65625 6.671875 -5.65625 L 4.578125 -5.65625 L 4.578125 0 L 1.109375 0 Z M 4.578125 -8.421875 L 5.5625 -8.421875 C 6.34375 -8.421875 6.976562 -8.578125 7.46875 -8.890625 C 7.96875 -9.210938 8.21875 -9.726562 8.21875 -10.4375 C 8.21875 -11.164062 7.96875 -11.6875 7.46875 -12 C 6.976562 -12.320312 6.34375 -12.484375 5.5625 -12.484375 L 4.578125 -12.484375 Z M 4.578125 -8.421875 "/></g></g></g><g fill="#edfdff" fill-opacity="1"><g transform="translate(55.136889, 21.568778)"><g><path d="M 14.890625 -8.546875 L 14.890625 -5.234375 C 14.503906 -3.421875 13.644531 -2.046875 12.3125 -1.109375 C 10.976562 -0.179688 9.492188 0.28125 7.859375 0.28125 C 5.796875 0.28125 4.039062 -0.488281 2.59375 -2.03125 C 1.144531 -3.570312 0.421875 -5.429688 0.421875 -7.609375 C 0.421875 -9.828125 1.128906 -11.703125 2.546875 -13.234375 C 3.960938 -14.765625 5.734375 -15.53125 7.859375 -15.53125 C 10.335938 -15.53125 12.296875 -14.660156 13.734375 -12.921875 L 11.453125 -10.421875 C 10.640625 -11.734375 9.507812 -12.390625 8.0625 -12.390625 C 6.988281 -12.390625 6.070312 -11.921875 5.3125 -10.984375 C 4.550781 -10.054688 4.171875 -8.929688 4.171875 -7.609375 C 4.171875 -6.316406 4.550781 -5.210938 5.3125 -4.296875 C 6.070312 -3.378906 6.988281 -2.921875 8.0625 -2.921875 C 8.945312 -2.921875 9.71875 -3.1875 10.375 -3.71875 C 11.039062 -4.257812 11.375 -4.972656 11.375 -5.859375 L 7.859375 -5.859375 L 7.859375 -8.546875 Z M 14.890625 -8.546875 "/></g></g></g><g fill="#edfdff" fill-opacity="1"><g transform="translate(70.500162, 21.568778)"><g><path d="M 9.828125 -15.25 L 9.828125 -12.203125 L 4.578125 -12.203125 L 4.578125 -9.171875 L 9.609375 -9.171875 L 9.609375 -6.125 L 4.578125 -6.125 L 4.578125 -3.046875 L 9.828125 -3.046875 L 9.828125 0 L 1.109375 0 L 1.109375 -15.25 Z M 9.828125 -15.25 "/></g></g></g><g fill="#edfdff" fill-opacity="1"><g transform="translate(81.259996, 21.568778)"><g><path d="M 4.578125 -9.46875 L 4.578125 0 L 1.109375 0 L 1.109375 -15.25 L 4.578125 -15.25 L 10.640625 -5.78125 L 10.6875 -5.78125 L 10.6875 -15.25 L 14.15625 -15.25 L 14.15625 0 L 10.6875 0 L 4.625 -9.46875 Z M 4.578125 -9.46875 "/></g></g></g><g fill="#edfdff" fill-opacity="1"><g transform="translate(96.567804, 21.568778)"><g><path d="M 4.578125 -15.25 L 4.578125 0 L 1.109375 0 L 1.109375 -15.25 Z M 4.578125 -15.25 "/></g></g></g><g fill="#edfdff" fill-opacity="1"><g transform="translate(102.299003, 21.568778)"><g><path d="M 15.375 0 L 10.890625 0 L 7.28125 -5.1875 L 3.671875 0 L -0.625 0 L 5.140625 -8.203125 L 0.328125 -15.25 L 4.46875 -15.25 L 7.28125 -11.09375 L 10.09375 -15.25 L 14.421875 -15.25 L 9.421875 -8.203125 Z M 15.375 0 "/></g></g></g></svg>