<svg xmlns="http://www.w3.org/2000/svg" xmlns:xlink="http://www.w3.org/1999/xlink" width="160" zoomAndPan="magnify" viewBox="0 0 120 30.000001" height="40" preserveAspectRatio="xMidYMid meet" version="1.0"><defs><g/><clipPath id="495cc9110a"><path d="M 28 6 L 43.789062 6 L 43.789062 22 L 28 22 Z M 28 6 " clip-rule="nonzero"/></clipPath><clipPath id="3887f5512a"><path d="M 111 4 L 116 4 L 116 9 L 111 9 Z M 111 4 " clip-rule="nonzero"/></clipPath><clipPath id="3fc37ba808"><path d="M 113.75 8.28125 L 111.039062 6.417969 L 113.300781 3.125 L 116.011719 4.988281 Z M 113.75 8.28125 " clip-rule="nonzero"/></clipPath><clipPath id="d60b998e71"><path d="M 113.75 8.28125 L 111.039062 6.417969 L 113.300781 3.125 L 116.011719 4.988281 Z M 113.75 8.28125 " clip-rule="nonzero"/></clipPath><clipPath id="cac74ffe32"><path d="M 109 5 L 115 5 L 115 10 L 109 10 Z M 109 5 " clip-rule="nonzero"/></clipPath><clipPath id="9701a80b83"><path d="M 112.570312 9.976562 L 109.859375 8.113281 L 112.117188 4.820312 L 114.832031 6.683594 Z M 112.570312 9.976562 " clip-rule="nonzero"/></clipPath><clipPath id="dbe5ca017b"><path d="M 112.570312 9.976562 L 109.859375 8.113281 L 112.117188 4.820312 L 114.832031 6.683594 Z M 112.570312 9.976562 " clip-rule="nonzero"/></clipPath></defs><g fill="#edfdff" fill-opacity="1"><g transform="translate(4.678757, 19.702633)"><g><path d="M 8.59375 -2.921875 C 9.082031 -2.921875 9.5625 -2.992188 10.03125 -3.140625 C 10.5 -3.296875 10.835938 -3.441406 11.046875 -3.578125 L 11.375 -3.8125 L 12.765625 -1.046875 C 12.710938 -1.015625 12.644531 -0.96875 12.5625 -0.90625 C 12.488281 -0.851562 12.304688 -0.75 12.015625 -0.59375 C 11.722656 -0.4375 11.410156 -0.300781 11.078125 -0.1875 C 10.742188 -0.0703125 10.304688 0.03125 9.765625 0.125 C 9.222656 0.21875 8.664062 0.265625 8.09375 0.265625 C 6.769531 0.265625 5.515625 -0.0546875 4.328125 -0.703125 C 3.148438 -1.359375 2.195312 -2.253906 1.46875 -3.390625 C 0.75 -4.523438 0.390625 -5.753906 0.390625 -7.078125 C 0.390625 -8.078125 0.601562 -9.035156 1.03125 -9.953125 C 1.457031 -10.867188 2.019531 -11.65625 2.71875 -12.3125 C 3.425781 -12.96875 4.25 -13.488281 5.1875 -13.875 C 6.132812 -14.269531 7.101562 -14.46875 8.09375 -14.46875 C 9.007812 -14.46875 9.851562 -14.359375 10.625 -14.140625 C 11.40625 -13.921875 11.957031 -13.703125 12.28125 -13.484375 L 12.765625 -13.15625 L 11.375 -10.40625 C 11.300781 -10.46875 11.179688 -10.546875 11.015625 -10.640625 C 10.859375 -10.742188 10.535156 -10.875 10.046875 -11.03125 C 9.566406 -11.195312 9.082031 -11.28125 8.59375 -11.28125 C 7.8125 -11.28125 7.109375 -11.148438 6.484375 -10.890625 C 5.867188 -10.640625 5.378906 -10.304688 5.015625 -9.890625 C 4.660156 -9.484375 4.382812 -9.039062 4.1875 -8.5625 C 4 -8.09375 3.90625 -7.609375 3.90625 -7.109375 C 3.90625 -6.035156 4.3125 -5.066406 5.125 -4.203125 C 5.9375 -3.347656 7.09375 -2.921875 8.59375 -2.921875 Z M 8.59375 -2.921875 "/></g></g></g><g fill="#edfdff" fill-opacity="1"><g transform="translate(17.690909, 19.702633)"><g/></g></g><g fill="#edfdff" fill-opacity="1"><g transform="translate(22.426425, 19.702633)"><g/></g></g><g fill="#edfdff" fill-opacity="1"><g transform="translate(27.161941, 19.702633)"><g/></g></g><g fill="#edfdff" fill-opacity="1"><g transform="translate(31.897457, 19.702633)"><g/></g></g><g fill="#edfdff" fill-opacity="1"><g transform="translate(36.632974, 19.702633)"><g/></g></g><g fill="#edfdff" fill-opacity="1"><g transform="translate(41.368491, 19.702633)"><g/></g></g><g fill="#edfdff" fill-opacity="1"><g transform="translate(46.106468, 19.702633)"><g><path d="M 1.03125 -14.203125 L 6.21875 -14.203125 C 7.664062 -14.203125 8.835938 -13.828125 9.734375 -13.078125 C 10.628906 -12.335938 11.078125 -11.253906 11.078125 -9.828125 C 11.078125 -8.410156 10.617188 -7.296875 9.703125 -6.484375 C 8.796875 -5.671875 7.632812 -5.265625 6.21875 -5.265625 L 4.265625 -5.265625 L 4.265625 0 L 1.03125 0 Z M 4.265625 -7.859375 L 5.1875 -7.859375 C 5.90625 -7.859375 6.492188 -8.003906 6.953125 -8.296875 C 7.421875 -8.585938 7.65625 -9.066406 7.65625 -9.734375 C 7.65625 -10.410156 7.421875 -10.894531 6.953125 -11.1875 C 6.492188 -11.476562 5.90625 -11.625 5.1875 -11.625 L 4.265625 -11.625 Z M 4.265625 -7.859375 "/></g></g></g><g fill="#edfdff" fill-opacity="1"><g transform="translate(57.609467, 19.702633)"><g><path d="M 13.875 -7.953125 L 13.875 -4.875 C 13.507812 -3.1875 12.707031 -1.90625 11.46875 -1.03125 C 10.226562 -0.164062 8.84375 0.265625 7.3125 0.265625 C 5.394531 0.265625 3.757812 -0.453125 2.40625 -1.890625 C 1.0625 -3.328125 0.390625 -5.0625 0.390625 -7.09375 C 0.390625 -9.15625 1.050781 -10.898438 2.375 -12.328125 C 3.695312 -13.753906 5.34375 -14.46875 7.3125 -14.46875 C 9.625 -14.46875 11.453125 -13.65625 12.796875 -12.03125 L 10.671875 -9.71875 C 9.921875 -10.925781 8.863281 -11.53125 7.5 -11.53125 C 6.507812 -11.53125 5.660156 -11.097656 4.953125 -10.234375 C 4.242188 -9.367188 3.890625 -8.320312 3.890625 -7.09375 C 3.890625 -5.882812 4.242188 -4.851562 4.953125 -4 C 5.660156 -3.144531 6.507812 -2.71875 7.5 -2.71875 C 8.332031 -2.71875 9.054688 -2.96875 9.671875 -3.46875 C 10.285156 -3.96875 10.59375 -4.628906 10.59375 -5.453125 L 7.3125 -5.453125 L 7.3125 -7.953125 Z M 13.875 -7.953125 "/></g></g></g><g fill="#edfdff" fill-opacity="1"><g transform="translate(71.919328, 19.702633)"><g><path d="M 9.15625 -14.203125 L 9.15625 -11.359375 L 4.265625 -11.359375 L 4.265625 -8.546875 L 8.953125 -8.546875 L 8.953125 -5.703125 L 4.265625 -5.703125 L 4.265625 -2.84375 L 9.15625 -2.84375 L 9.15625 0 L 1.03125 0 L 1.03125 -14.203125 Z M 9.15625 -14.203125 "/></g></g></g><g fill="#edfdff" fill-opacity="1"><g transform="translate(81.941394, 19.702633)"><g><path d="M 4.265625 -8.8125 L 4.265625 0 L 1.03125 0 L 1.03125 -14.203125 L 4.265625 -14.203125 L 9.921875 -5.390625 L 9.953125 -5.390625 L 9.953125 -14.203125 L 13.1875 -14.203125 L 13.1875 0 L 9.953125 0 L 4.3125 -8.8125 Z M 4.265625 -8.8125 "/></g></g></g><g fill="#edfdff" fill-opacity="1"><g transform="translate(96.199593, 19.702633)"><g><path d="M 4.265625 -14.203125 L 4.265625 0 L 1.03125 0 L 1.03125 -14.203125 Z M 4.265625 -14.203125 "/></g></g></g><g fill="#edfdff" fill-opacity="1"><g transform="translate(101.537822, 19.702633)"><g><path d="M 14.328125 0 L 10.140625 0 L 6.78125 -4.84375 L 3.421875 0 L -0.578125 0 L 4.78125 -7.640625 L 0.3125 -14.203125 L 4.171875 -14.203125 L 6.78125 -10.328125 L 9.40625 -14.203125 L 13.4375 -14.203125 L 8.78125 -7.640625 Z M 14.328125 0 "/></g></g></g><path fill="#e300ff" d="M 30.230469 20.394531 C 25.453125 23.242188 18.902344 19.472656 19.050781 13.855469 C 18.886719 8.101562 25.75 4.351562 30.496094 7.480469 C 29.664062 8.21875 28.984375 9.125 28.496094 10.132812 C 25.8125 8.652344 22.253906 10.769531 22.339844 13.871094 C 22.253906 17.074219 26.0625 19.179688 28.730469 17.472656 C 28.746094 17.472656 29.429688 17.074219 29.429688 17.074219 C 31.207031 16.078125 34.648438 14.105469 36.457031 13.082031 L 36.457031 16.835938 L 34.691406 17.859375 C 34.707031 17.859375 34.707031 17.875 34.722656 17.875 C 33.625 18.4375 31.3125 19.757812 30.230469 20.394531 Z M 30.230469 20.394531 " fill-opacity="1" fill-rule="nonzero"/><g clip-path="url(#495cc9110a)"><path fill="#00fff0" d="M 43.707031 13.871094 C 43.855469 19.398438 37.464844 23.179688 32.691406 20.484375 L 37.066406 18.035156 C 38.785156 17.679688 40.132812 16.285156 40.414062 14.535156 L 40.371094 14.566406 C 40.371094 14.550781 40.371094 14.550781 40.371094 14.535156 L 37.71875 16.035156 L 37.71875 12.355469 L 42.476562 9.746094 C 43.054688 10.609375 43.441406 11.601562 43.617188 12.667969 L 43.632812 12.667969 C 43.484375 11.71875 43.160156 10.832031 42.683594 10.042969 C 43.160156 10.84375 43.484375 11.734375 43.648438 12.683594 L 43.632812 12.699219 C 43.675781 13.070312 43.707031 13.46875 43.707031 13.871094 Z M 28.96875 15.796875 L 31.980469 14.105469 C 31.667969 10.667969 35.894531 8.339844 38.636719 10.386719 L 41.632812 8.695312 C 36.53125 3.121094 26.878906 8.441406 28.96875 15.796875 Z M 28.96875 15.796875 " fill-opacity="1" fill-rule="nonzero"/></g><g clip-path="url(#3887f5512a)"><g clip-path="url(#3fc37ba808)"><g clip-path="url(#d60b998e71)"><path fill="#00fff0" d="M 112.496094 4.226562 L 111.007812 6.394531 L 113.175781 6.183594 L 113.75 8.277344 L 115.238281 6.113281 L 114.660156 4.019531 Z M 112.496094 4.226562 " fill-opacity="1" fill-rule="evenodd"/></g></g></g><g clip-path="url(#cac74ffe32)"><g clip-path="url(#9701a80b83)"><g clip-path="url(#dbe5ca017b)"><path fill="#e300ff" d="M 111.328125 5.96875 L 109.855469 8.109375 L 112 7.902344 L 112.570312 9.972656 L 114.042969 7.832031 L 113.46875 5.761719 Z M 111.328125 5.96875 " fill-opacity="1" fill-rule="evenodd"/></g></g></g></svg>